# xmcd
#
# Track frame offsets:
#	150
#	10937
#	25657
#	42766
#	57281
#	70251
#	83154
#	95260
#	110830
#	123032
#	138510
#	153728
#	166572
#	180363
#
# Disc length: 2592 seconds
#
# Revision: 0
# Processed by: cddbd v1.5.1PL0 Copyright (c) Steve Scherf et al.
# Submitted via: dBpowerAMP V4.0
#
DISCID=a70a1e0e
DTITLE=Rene Franz - skandinaviske perler
DYEAR=1900
DGENRE=Dansktop
TTITLE0=I den gamle kastanie alle
TTITLE1=Det smil som du gav
TTITLE2=Vayo coco
TTITLE3=Den sande kærlighed
TTITLE4=Du er den dejligste rose
TTITLE5=Et hjerte fyldt med smerte
TTITLE6=Tarzan and Jane
TTITLE7=Har du glemt mig?
TTITLE8=Du gi'r mig mer' end kærligheden
TTITLE9=Min lille engel
TTITLE10=Pommes frites og en Coca Cola
TTITLE11=Hallo hallo er du der?
TTITLE12=Danser med en engel
TTITLE13=Pamela
EXTD=
EXTT0=
EXTT1=
EXTT2=
EXTT3=
EXTT4=
EXTT5=
EXTT6=
EXTT7=
EXTT8=
EXTT9=
EXTT10=
EXTT11=
EXTT12=
EXTT13=
PLAYORDER=
